<svg width="29" height="50" viewBox="0 0 29 50" fill="none"
  xmlns="http://www.w3.org/2000/svg">
  <path d="M25.6113 48.334H18.0623V38.2946C20.8776 38.0896 23.5123 36.8409 25.4438 34.7962C27.3367 32.8301 28.3107 30.1643 28.1276 27.4502C28.0699 26.6302 27.9322 25.5739 27.7856 24.4513C27.5178 22.7048 27.3523 20.9445 27.2888 19.1792C27.424 17.5608 27.6963 15.9567 28.1026 14.3838C28.1653 14.1349 28.1092 13.8709 27.9503 13.6688C27.7914 13.4666 27.5473 13.3483 27.2888 13.3483H13.4199L13.6136 13.2368L15.7941 11.9873C16.1947 11.7567 16.3315 11.2471 16.0996 10.8493C14.4225 7.97203 11.1849 6.35851 7.85929 6.74328C7.94653 6.45369 7.99281 6.15352 7.99691 5.85131C7.99691 4.01124 6.49505 2.51933 4.64179 2.51933C4.26745 2.5234 3.89598 2.59051 3.54376 2.71741L1.98456 0.3917C1.82279 0.134643 1.53282 -0.0150356 1.2277 0.00123379C0.922575 0.0175032 0.650627 0.19728 0.517929 0.470607C0.384822 0.743933 0.412263 1.06729 0.588783 1.31499L2.14921 3.64233C1.43903 4.41757 1.1421 5.4824 1.34975 6.51022C1.55739 7.53804 2.24463 8.40642 3.20096 8.85017C0.283251 11.4862 -0.394571 15.7834 1.57214 19.1792C1.68313 19.3704 1.8662 19.5103 2.08122 19.5672C2.29624 19.6246 2.52518 19.5945 2.71768 19.4843L6.91772 17.076C7.04673 17.7467 7.12741 18.4259 7.15813 19.1084C7.15157 19.1316 7.14584 19.1552 7.14134 19.1792C7.14502 19.204 7.15035 19.2284 7.15649 19.2524C7.08973 20.9945 6.9255 22.7316 6.6642 24.4554C6.51758 25.5739 6.37996 26.6302 6.32181 27.4543C6.13914 30.1684 7.11308 32.8341 9.00606 34.8003C10.9371 36.845 13.5718 38.0941 16.3872 38.299V48.334H8.83569C8.37247 48.334 7.99691 48.707 7.99691 49.167C7.99691 49.627 8.37247 50 8.83569 50H25.6113C26.0745 50 26.45 49.627 26.45 49.167C26.45 48.707 26.0745 48.334 25.6113 48.334ZM11.8304 12.3355L10.064 13.3483H7.15813C6.89969 13.3483 6.65601 13.4666 6.4971 13.6688C6.33819 13.8709 6.28167 14.1349 6.34474 14.3838C6.34474 14.3944 6.44426 14.7853 6.57041 15.3506L4.85763 16.3329C4.22486 14.455 5.0108 12.3945 6.73751 11.4045C8.46421 10.4145 10.6541 10.7683 11.9754 12.2513L11.8304 12.3355ZM4.64179 4.18532C5.56821 4.18532 6.31935 4.93127 6.31935 5.85131C6.31935 6.77135 5.56821 7.5173 4.64179 7.5173C3.71537 7.5173 2.96423 6.77135 2.96423 5.85131C2.96423 4.93127 3.71537 4.18532 4.64179 4.18532ZM2.65051 17.5966C1.33787 14.5009 2.55017 10.9184 5.47934 9.23901C8.40851 7.55919 12.1388 8.30718 14.1821 10.9843L13.4432 11.4081C11.6408 9.13082 8.42694 8.51543 5.90119 9.96341C3.37502 11.4118 2.30484 14.4839 3.38976 17.1724L2.65051 17.5966ZM10.5132 15.0142H26.2322C25.9795 16.1137 25.7886 17.2261 25.66 18.3462H8.78695C8.72183 17.6658 8.59527 16.8987 8.45848 16.1922L10.5132 15.0142ZM7.99691 27.5681C8.0522 26.797 8.18735 25.7639 8.33234 24.6693C8.53138 23.1441 8.74271 21.4634 8.80988 20.0122H25.6416C25.7087 21.4634 25.9201 23.1441 26.1187 24.6693C26.2625 25.7639 26.3972 26.797 26.4546 27.5681C26.6008 29.821 25.7882 32.0312 24.2147 33.6606C22.4048 35.5816 19.8741 36.6721 17.2251 36.6721C14.5761 36.6721 12.0458 35.5816 10.2356 33.6606C8.66285 32.0312 7.85069 29.821 7.99691 27.5681Z" fill="url(#paint0_linear)"/>
  <defs>
    <linearGradient id="paint0_linear" x1="14.2988" y1="51.0329" x2="14.2988" y2="-1.58233" gradientUnits="userSpaceOnUse">
      <stop stop-color="#E93E3A"/>
      <stop offset="0.354" stop-color="#ED683C"/>
      <stop offset="0.709" stop-color="#F3903F"/>
      <stop offset="1" stop-color="#FDC70C"/>
    </linearGradient>
  </defs>
</svg>
